<?xml version="1.0" encoding="utf-8"?>
<!-- Generator: Adobe Illustrator 21.0.2, SVG Export Plug-In . SVG Version: 6.00 Build 0)  -->
<svg version="1.1" id="Layer_1" xmlns="http://www.w3.org/2000/svg" xmlns:xlink="http://www.w3.org/1999/xlink" x="0px" y="0px"
	 viewBox="0 0 32 29.6" style="enable-background:new 0 0 32 29.6;" xml:space="preserve">
<style type="text/css">
	.st0{fill:#99D3FF;}
	.st1{enable-background:new    ;}
</style>
<g>
	<polygon class="st0" points="0,29.6 0,0.1 32,0.1 32,21.1 9,21.1 9,19.1 30,19.1 30,2.1 2,2.1 2,23.7 5.2,19.5 6.8,20.7 	"/>
</g>
<g class="st1">
	<path class="st0" d="M5.9,8.2H4V6.8h5.6v1.4h-2V14H5.9V8.2z"/>
	<path class="st0" d="M13.6,12.3h-2.1L11.1,14H9.3l2.2-7.2h2.1l2.2,7.2h-1.8L13.6,12.3z M13.3,11l-0.2-0.6c-0.2-0.7-0.4-1.6-0.6-2.3
		h0c-0.2,0.8-0.4,1.6-0.6,2.3L11.8,11H13.3z"/>
	<path class="st0" d="M16.6,6.8h1.7v5.7h2.8V14h-4.5V6.8z"/>
	<path class="st0" d="M22.4,6.8h1.7v2.8h0l2-2.8h1.9l-2.2,2.9l2.6,4.3h-1.9l-1.7-3l-0.8,1.1V14h-1.7V6.8z"/>
</g>
</svg>
