<?xml version="1.0" encoding="utf-8"?>
<!-- Generator: Adobe Illustrator 16.0.0, SVG Export Plug-In . SVG Version: 6.00 Build 0)  -->
<!DOCTYPE svg PUBLIC "-//W3C//DTD SVG 1.1//EN" "http://www.w3.org/Graphics/SVG/1.1/DTD/svg11.dtd">
<svg version="1.1" id="Layer_1" xmlns="http://www.w3.org/2000/svg" xmlns:xlink="http://www.w3.org/1999/xlink" x="0px" y="0px"
	 width="32px" height="32px" viewBox="0 0 32 32" enable-background="new 0 0 32 32" xml:space="preserve">
<g>
	<g>
		<path fill="#DDDDDD" d="M12,16H7c-0.552,0-1-0.448-1-1s0.448-1,1-1h5c0.552,0,1,0.448,1,1S12.552,16,12,16z"/>
	</g>
	<g>
		<path fill="#DDDDDD" d="M16,20H7c-0.552,0-1-0.448-1-1s0.448-1,1-1h9c0.553,0,1,0.448,1,1S16.553,20,16,20z"/>
	</g>
	<g>
		<path fill="#DDDDDD" d="M16,24H7c-0.552,0-1-0.448-1-1s0.448-1,1-1h9c0.553,0,1,0.448,1,1S16.553,24,16,24z"/>
	</g>
	<g>
		<path fill="#DDDDDD" d="M27,32H5c-2.757,0-5-2.243-5-5V10c0-2.757,2.243-5,5-5h12c0.553,0,1,0.448,1,1s-0.447,1-1,1H5
			c-1.654,0-3,1.346-3,3v17c0,1.654,1.346,3,3,3h22c1.654,0,3-1.346,3-3V10c0-1.654-1.346-3-3-3c-0.553,0-1-0.448-1-1s0.447-1,1-1
			c2.757,0,5,2.243,5,5v17C32,29.757,29.757,32,27,32z"/>
	</g>
	<g>
		<g>
			<g>
				<path fill="#DDDDDD" d="M22.117,24c-0.553,0-1-0.448-1-1v-2c0-0.552,0.447-1,1-1s1,0.448,1,1v2
					C23.117,23.552,22.67,24,22.117,24z"/>
			</g>
		</g>
		<g>
			<path fill="#DDDDDD" d="M22.666,22h-1c-0.734,0-1.332-0.598-1.332-1.332v-0.136l-0.446-1.085l-0.749-1.271
				C19.048,18.022,19,17.847,19,17.668V3c0-1.654,1.346-3,3-3s3,1.346,3,3v14.668c0,0.131-0.025,0.26-0.075,0.381l-0.549,1.332
				L24,20.498v0.17C24,21.402,23.401,22,22.666,22z M21,17.395l0.646,1.097c0.024,0.041,0.046,0.083,0.063,0.127l0.447,1.086
				l0.347-1.026L23,17.471V3c0-0.551-0.448-1-1-1s-1,0.449-1,1V17.395z"/>
		</g>
	</g>
</g>
</svg>
