<?xml version="1.0" encoding="utf-8"?>
<!-- Generator: Adobe Illustrator 16.0.0, SVG Export Plug-In . SVG Version: 6.00 Build 0)  -->
<!DOCTYPE svg PUBLIC "-//W3C//DTD SVG 1.1//EN" "http://www.w3.org/Graphics/SVG/1.1/DTD/svg11.dtd">
<svg version="1.1" id="Layer_1" xmlns="http://www.w3.org/2000/svg" xmlns:xlink="http://www.w3.org/1999/xlink" x="0px" y="0px"
	 width="32px" height="28px" viewBox="0 0 32 28" enable-background="new 0 0 32 28" xml:space="preserve">
<g>
	<g>
		<circle fill="#DDDDDD" cx="5" cy="4" r="1"/>
	</g>
	<g>
		<circle fill="#DDDDDD" cx="7.986" cy="4" r="1"/>
	</g>
	<g>
		<circle fill="#DDDDDD" cx="11" cy="4" r="1"/>
	</g>
	<g>
		<path fill="#DDDDDD" d="M27,28H5c-2.757,0-5-2.243-5-5V5c0-2.757,2.243-5,5-5h22c2.757,0,5,2.243,5,5v18
			C32,25.757,29.757,28,27,28z M5,2C3.346,2,2,3.346,2,5v18c0,1.654,1.346,3,3,3h22c1.654,0,3-1.346,3-3V5c0-1.654-1.346-3-3-3H5z"
			/>
	</g>
	<g>
		<path fill="#DDDDDD" d="M31,8H1C0.448,8,0,7.552,0,7s0.448-1,1-1h30c0.552,0,1,0.448,1,1S31.552,8,31,8z"/>
	</g>
	<g>
		<path fill="#DDDDDD" d="M27,24h-8.047c-0.552,0-1-0.448-1-1V11c0-0.552,0.448-1,1-1H27c0.552,0,1,0.448,1,1v12
			C28,23.552,27.552,24,27,24z M19.953,22H26V12h-6.047V22z"/>
	</g>
	<g>
		<path fill="#DDDDDD" d="M11,12H5c-0.552,0-1-0.448-1-1s0.448-1,1-1h6c0.552,0,1,0.448,1,1S11.552,12,11,12z"/>
	</g>
	<g>
		<path fill="#DDDDDD" d="M15,28c-0.552,0-1-0.448-1-1V7.094c0-0.553,0.448-1,1-1s1,0.447,1,1V27C16,27.552,15.552,28,15,28z"/>
	</g>
	<g>
		<path fill="#DDDDDD" d="M11,16H5c-0.552,0-1-0.448-1-1s0.448-1,1-1h6c0.552,0,1,0.448,1,1S11.552,16,11,16z"/>
	</g>
	<g>
		<path fill="#DDDDDD" d="M11,24H5c-0.552,0-1-0.448-1-1s0.448-1,1-1h6c0.552,0,1,0.448,1,1S11.552,24,11,24z"/>
	</g>
	<g>
		<path fill="#DDDDDD" d="M11,20H5c-0.552,0-1-0.448-1-1s0.448-1,1-1h6c0.552,0,1,0.448,1,1S11.552,20,11,20z"/>
	</g>
</g>
</svg>
