<?xml version="1.0" encoding="utf-8"?>
<!-- Generator: Adobe Illustrator 16.0.0, SVG Export Plug-In . SVG Version: 6.00 Build 0)  -->
<!DOCTYPE svg PUBLIC "-//W3C//DTD SVG 1.1//EN" "http://www.w3.org/Graphics/SVG/1.1/DTD/svg11.dtd">
<svg version="1.1" id="Layer_1" xmlns="http://www.w3.org/2000/svg" xmlns:xlink="http://www.w3.org/1999/xlink" x="0px" y="0px"
	 width="32px" height="32px" viewBox="0 0 32 32" enable-background="new 0 0 32 32" xml:space="preserve">
<g>
	<g>
		<path fill="#DDDDDD" d="M8.283,32c-2.123,0-4.245-0.807-5.861-2.422c-3.229-3.232-3.229-8.489,0-11.72l5.143-5.141
			c0.391-0.391,1.023-0.391,1.414,0c0.391,0.391,0.391,1.024,0,1.415l-5.142,5.141c-2.449,2.451-2.449,6.439,0,8.891
			c2.451,2.45,6.439,2.45,8.892,0l5.142-5.142c0.391-0.391,1.023-0.391,1.414,0c0.391,0.39,0.391,1.023,0,1.414l-5.141,5.142
			C12.527,31.192,10.406,32,8.283,32z"/>
	</g>
	<g>
		<path fill="#DDDDDD" d="M23.729,19.577c-0.256,0-0.512-0.098-0.707-0.293c-0.391-0.39-0.391-1.024,0-1.415l5.142-5.143
			c2.451-2.451,2.451-6.438,0-8.889c-2.451-2.451-6.439-2.451-8.891,0l-5.141,5.14c-0.392,0.391-1.024,0.391-1.415,0
			c-0.391-0.391-0.391-1.024,0-1.414l5.142-5.14c3.232-3.231,8.49-3.23,11.72,0c3.229,3.231,3.229,8.487,0,11.718l-5.143,5.143
			C24.24,19.479,23.984,19.577,23.729,19.577z"/>
	</g>
	<g>
		<path fill="#DDDDDD" d="M8.283,24.717c-0.256,0-0.512-0.098-0.707-0.293c-0.391-0.391-0.391-1.023,0-1.414L21.3,9.286
			c0.391-0.391,1.024-0.391,1.415,0c0.391,0.391,0.391,1.023,0,1.414L8.99,24.423C8.795,24.619,8.539,24.717,8.283,24.717z"/>
	</g>
</g>
</svg>
