<?xml version="1.0" encoding="utf-8"?>
<!-- Generator: Adobe Illustrator 16.0.0, SVG Export Plug-In . SVG Version: 6.00 Build 0)  -->
<!DOCTYPE svg PUBLIC "-//W3C//DTD SVG 1.1//EN" "http://www.w3.org/Graphics/SVG/1.1/DTD/svg11.dtd">
<svg version="1.1" id="Layer_1" xmlns="http://www.w3.org/2000/svg" xmlns:xlink="http://www.w3.org/1999/xlink" x="0px" y="0px"
	 width="24px" height="32px" viewBox="0 0 24 32" enable-background="new 0 0 24 32" xml:space="preserve">
<g>
	<g>
		<g>
			<g>
				<path fill="#DDDDDD" d="M19,32H5c-2.757,0-5-2.243-5-5v-8.813c0-0.552,0.448-1,1-1s1,0.448,1,1V27c0,1.654,1.346,3,3,3h14
					c1.654,0,3-1.346,3-3v-8.813c0-0.552,0.448-1,1-1s1,0.448,1,1V27C24,29.757,21.757,32,19,32z"/>
			</g>
			<g>
				<path fill="#DDDDDD" d="M23,20.298c-0.552,0-1-0.448-1-1V16H2v3.298c0,0.552-0.448,1-1,1s-1-0.448-1-1V15c0-0.552,0.448-1,1-1
					h22c0.552,0,1,0.448,1,1v4.298C24,19.85,23.552,20.298,23,20.298z"/>
			</g>
		</g>
		<g>
			<path fill="#DDDDDD" d="M12,27c-2.206,0-4-1.794-4-4s1.794-4,4-4s4,1.794,4,4S14.206,27,12,27z M12,21c-1.103,0-2,0.897-2,2
				s0.897,2,2,2s2-0.897,2-2S13.103,21,12,21z"/>
		</g>
	</g>
	<g>
		<path fill="#DDDDDD" d="M20,16c-0.552,0-1-0.448-1-1V9c0-3.86-3.14-7-7-7S5,5.14,5,9v6c0,0.552-0.448,1-1,1s-1-0.448-1-1V9
			c0-4.962,4.038-9,9-9s9,4.038,9,9v6C21,15.552,20.552,16,20,16z"/>
	</g>
</g>
</svg>
