<?xml version="1.0" encoding="utf-8"?>
<!-- Generator: Adobe Illustrator 16.0.0, SVG Export Plug-In . SVG Version: 6.00 Build 0)  -->
<!DOCTYPE svg PUBLIC "-//W3C//DTD SVG 1.1//EN" "http://www.w3.org/Graphics/SVG/1.1/DTD/svg11.dtd">
<svg version="1.1" id="Layer_1" xmlns="http://www.w3.org/2000/svg" xmlns:xlink="http://www.w3.org/1999/xlink" x="0px" y="0px"
	 width="32.2px" height="32.2px" viewBox="0 0 32.2 32.2" enable-background="new 0 0 32.2 32.2" xml:space="preserve">
<g>
	<path fill="#99D2FE" stroke="#94CBF6" stroke-width="0.2" stroke-miterlimit="10" d="M21.87,0.1c-5.641,0-10.23,4.589-10.23,10.23
		c0,0.779,0.095,1.535,0.261,2.265L0.394,24.674c-0.032,0.033-0.044,0.076-0.07,0.112C0.191,24.955,0.1,25.158,0.1,25.389V31.1
		c0,0.552,0.448,1,1,1h5.707c0.013,0,0.023-0.007,0.035-0.007c0.009,0,0.017,0.005,0.025,0.005c0.552,0,1-0.448,1-1V28.7h2.402
		c0.552,0,1-0.448,1-1c0,0,0-0.001,0-0.001s0-0.001,0-0.001v-2.398h2.4c0.141,0,0.274-0.031,0.396-0.083
		c0.026-0.011,0.046-0.035,0.071-0.048c0.095-0.051,0.185-0.11,0.258-0.189c0.007-0.007,0.018-0.01,0.024-0.018l4.318-4.893
		c0.988,0.318,2.039,0.495,3.131,0.495c5.641,0,10.23-4.59,10.23-10.231C32.1,4.689,27.511,0.1,21.87,0.1z M13.219,23.298H10.27
		c-0.552,0-1,0.448-1,1V26.7H6.868c-0.552,0-1,0.448-1,1v2.4H2.1v-4.317l10.541-11.065c0.903,1.893,2.366,3.466,4.179,4.5
		L13.219,23.298z M21.87,18.562c-4.538,0-8.23-3.692-8.23-8.231c0-4.538,3.692-8.23,8.23-8.23s8.23,3.692,8.23,8.23
		C30.1,14.87,26.408,18.562,21.87,18.562z"/>
	<path fill="#99D2FE" stroke="#94CBF6" stroke-width="0.2" stroke-miterlimit="10" d="M21.87,7.023
		c-1.823,0-3.307,1.484-3.307,3.308c0,1.824,1.483,3.309,3.307,3.309c1.824,0,3.309-1.484,3.309-3.309
		C25.178,8.507,23.694,7.023,21.87,7.023z M21.87,11.639c-0.721,0-1.307-0.587-1.307-1.309c0-0.721,0.586-1.308,1.307-1.308
		c0.722,0,1.309,0.586,1.309,1.308C23.178,11.052,22.591,11.639,21.87,11.639z"/>
</g>
</svg>
