<?xml version="1.0" encoding="utf-8"?>
<!-- Generator: Adobe Illustrator 16.0.0, SVG Export Plug-In . SVG Version: 6.00 Build 0)  -->
<!DOCTYPE svg PUBLIC "-//W3C//DTD SVG 1.1//EN" "http://www.w3.org/Graphics/SVG/1.1/DTD/svg11.dtd">
<svg version="1.1" id="Layer_1" xmlns="http://www.w3.org/2000/svg" xmlns:xlink="http://www.w3.org/1999/xlink" x="0px" y="0px"
	 width="18.2px" height="32.225px" viewBox="0 0 18.2 32.225" enable-background="new 0 0 18.2 32.225" xml:space="preserve">
<g>
	<g>
		<path fill="#99D2FE" d="M18.1,9.1c0-4.962-4.038-9-9-9s-9,4.038-9,9c0,1.167,0.22,2.303,0.655,3.377
			c0.006,0.014,0.018,0.023,0.024,0.037c0.005,0.015,0.003,0.031,0.01,0.046L4.683,21.5C4.842,21.864,5.202,22.1,5.6,22.1h7
			c0.398,0,0.758-0.236,0.917-0.601l3.894-8.939c0.006-0.013,0.003-0.027,0.009-0.04c0.007-0.015,0.019-0.027,0.025-0.043
			C17.88,11.403,18.1,10.267,18.1,9.1z M11.945,20.1H10.1v-5.155c1.162-0.415,2-1.514,2-2.816c0-0.552-0.448-1-1-1s-1,0.448-1,1
			c0,0.551-0.449,1-1,1s-1-0.449-1-1c0-0.552-0.448-1-1-1s-1,0.448-1,1c0,1.302,0.838,2.401,2,2.815V20.1H6.255l-3.632-8.339
			c-0.003-0.006-0.008-0.01-0.011-0.016c-0.002-0.006-0.001-0.012-0.003-0.018C2.271,10.892,2.1,10.008,2.1,9.1c0-3.86,3.14-7,7-7
			s7,3.14,7,7c0,0.908-0.171,1.792-0.509,2.627c-0.002,0.006-0.001,0.012-0.003,0.018c-0.003,0.006-0.008,0.01-0.011,0.016
			L11.945,20.1z"/>
		<path fill="#94CBF6" d="M12.6,22.2h-7c-0.438,0-0.833-0.259-1.009-0.661L0.698,12.6c-0.009-0.021-0.012-0.042-0.013-0.054
			c0.001,0.004-0.013-0.01-0.021-0.031C0.223,11.429,0,10.28,0,9.1C0,4.083,4.083,0,9.1,0s9.1,4.083,9.1,9.1
			c0,1.18-0.223,2.329-0.663,3.415c-0.007,0.019-0.017,0.033-0.024,0.042c0,0.005-0.002,0.023-0.012,0.043l-3.893,8.939
			C13.434,21.941,13.038,22.2,12.6,22.2z M9.1,0.2c-4.908,0-8.9,3.992-8.9,8.9c0,1.154,0.218,2.278,0.648,3.339
			c0.004,0.001,0.014,0.015,0.022,0.032l0.013,0.052l3.892,8.936C4.918,21.788,5.242,22,5.6,22h7c0.358,0,0.682-0.212,0.825-0.541
			l3.894-8.939c-0.001-0.002,0-0.019,0.008-0.038l0.022-0.039C17.782,11.378,18,10.254,18,9.1C18,4.192,14.008,0.2,9.1,0.2z
			 M12.01,20.2H10v-5.325l0.066-0.024C11.223,14.438,12,13.345,12,12.129c0-0.496-0.404-0.9-0.9-0.9s-0.9,0.404-0.9,0.9
			c0,0.606-0.494,1.1-1.1,1.1S8,12.736,8,12.129c0-0.496-0.404-0.9-0.9-0.9s-0.9,0.404-0.9,0.9c0,1.215,0.777,2.309,1.934,2.721
			L8.2,14.875V20.2H6.19l-0.026-0.06l-3.632-8.339c-0.019-0.035-0.021-0.051-0.021-0.057C2.174,10.917,2,10.021,2,9.1
			C2,5.185,5.185,2,9.1,2s7.1,3.185,7.1,7.1c0,0.92-0.174,1.817-0.516,2.665c-0.013,0.038-0.021,0.048-0.025,0.053L12.01,20.2z
			 M10.2,20h1.679l3.62-8.312C15.832,10.866,16,9.995,16,9.1c0-3.805-3.095-6.9-6.9-6.9S2.2,5.295,2.2,9.1
			c0,0.895,0.168,1.766,0.501,2.589l0.007,0.027L6.321,20H8v-4.985c-1.199-0.458-2-1.609-2-2.885c0-0.606,0.494-1.1,1.1-1.1
			s1.1,0.494,1.1,1.1c0,0.496,0.404,0.9,0.9,0.9s0.9-0.404,0.9-0.9c0-0.606,0.494-1.1,1.1-1.1s1.1,0.494,1.1,1.1
			c0,1.276-0.801,2.427-2,2.886V20z"/>
	</g>
	<g>
		<path fill="#99D2FE" d="M13.1,23.1H5.6c-0.552,0-1,0.448-1,1s0.448,1,1,1h7.5c0.552,0,1-0.448,1-1S13.652,23.1,13.1,23.1z"/>
		<path fill="#94CBF6" d="M13.1,25.2H5.6c-0.606,0-1.1-0.494-1.1-1.1S4.994,23,5.6,23h7.5c0.606,0,1.1,0.494,1.1,1.1
			S13.707,25.2,13.1,25.2z M5.6,23.2c-0.496,0-0.9,0.404-0.9,0.9S5.104,25,5.6,25h7.5c0.496,0,0.9-0.404,0.9-0.9s-0.404-0.9-0.9-0.9
			H5.6z"/>
	</g>
	<g>
		<path fill="#99D2FE" d="M12.85,26.1h-7.5c-0.552,0-1,0.448-1,1s0.448,1,1,1H6.1v1c0,1.654,1.346,3,3,3s3-1.346,3-3v-1h0.75
			c0.552,0,1-0.448,1-1S13.402,26.1,12.85,26.1z M10.1,29.1c0,0.551-0.449,1-1,1s-1-0.449-1-1v-1h2V29.1z"/>
		<path fill="#94CBF6" d="M9.1,32.2C7.391,32.2,6,30.81,6,29.1v-0.9H5.35c-0.606,0-1.1-0.494-1.1-1.1S4.744,26,5.35,26h7.5
			c0.606,0,1.1,0.494,1.1,1.1s-0.494,1.1-1.1,1.1H12.2v0.9C12.2,30.81,10.81,32.2,9.1,32.2z M5.35,26.2c-0.496,0-0.9,0.404-0.9,0.9
			S4.854,28,5.35,28H6.2v1.1c0,1.599,1.301,2.9,2.9,2.9s2.9-1.301,2.9-2.9V28h0.85c0.496,0,0.9-0.404,0.9-0.9s-0.404-0.9-0.9-0.9
			H5.35z M9.1,30.2c-0.606,0-1.1-0.494-1.1-1.1V28h2.2v1.1C10.2,29.707,9.707,30.2,9.1,30.2z M8.2,28.2v0.9
			c0,0.496,0.404,0.9,0.9,0.9s0.9-0.404,0.9-0.9v-0.9H8.2z"/>
	</g>
</g>
</svg>
