<?xml version="1.0" encoding="utf-8"?>
<!-- Generator: Adobe Illustrator 16.0.0, SVG Export Plug-In . SVG Version: 6.00 Build 0)  -->
<!DOCTYPE svg PUBLIC "-//W3C//DTD SVG 1.1//EN" "http://www.w3.org/Graphics/SVG/1.1/DTD/svg11.dtd">
<svg version="1.1" id="레이어_1" xmlns="http://www.w3.org/2000/svg" xmlns:xlink="http://www.w3.org/1999/xlink" x="0px"
	 y="0px" width="56.692px" height="56.693px" viewBox="0 0 56.692 56.693" enable-background="new 0 0 56.692 56.693"
	 xml:space="preserve">
<circle fill="#4A64A2" cx="28.346" cy="28.347" r="28.346"/>
<g>
	<path fill="#FFFFFF" d="M41.872,44.346H14.82c-0.553,0-1-0.448-1-1v-6.133c0-0.552,0.447-1,1-1s1,0.448,1,1v5.133h25.052v-5.133
		c0-0.552,0.447-1,1-1s1,0.448,1,1v6.133C42.872,43.898,42.425,44.346,41.872,44.346z"/>
	<path fill="#FFFFFF" d="M28.347,38.213c-0.256,0-0.512-0.098-0.707-0.293l-7.765-7.764c-0.391-0.39-0.391-1.023,0-1.414
		s1.023-0.391,1.414,0l7.058,7.057l7.058-7.057c0.391-0.391,1.023-0.391,1.414,0s0.391,1.024,0,1.414l-7.765,7.764
		C28.858,38.115,28.603,38.213,28.347,38.213z"/>
	<path fill="#FFFFFF" d="M28.347,38.214c-0.553,0-1-0.448-1-1V13.347c0-0.552,0.447-1,1-1s1,0.448,1,1v23.867
		C29.347,37.766,28.899,38.214,28.347,38.214z"/>
</g>
</svg>
