<?xml version="1.0" encoding="utf-8"?>
<!-- Generator: Adobe Illustrator 16.0.0, SVG Export Plug-In . SVG Version: 6.00 Build 0)  -->
<!DOCTYPE svg PUBLIC "-//W3C//DTD SVG 1.1//EN" "http://www.w3.org/Graphics/SVG/1.1/DTD/svg11.dtd">
<svg version="1.1" id="Layer_1" xmlns="http://www.w3.org/2000/svg" xmlns:xlink="http://www.w3.org/1999/xlink" x="0px" y="0px"
	 width="32px" height="32px" viewBox="0 0 32 32" enable-background="new 0 0 32 32" xml:space="preserve">
<g>
	<path fill="#DDDDDD" d="M7,16h5c0.552,0,1-0.448,1-1s-0.448-1-1-1H7c-0.552,0-1,0.448-1,1S6.448,16,7,16z"/>
	<path fill="#DDDDDD" d="M16,18H7c-0.552,0-1,0.447-1,1s0.448,1,1,1h9c0.553,0,1-0.447,1-1S16.553,18,16,18z"/>
	<path fill="#DDDDDD" d="M16,22H7c-0.552,0-1,0.447-1,1s0.448,1,1,1h9c0.553,0,1-0.447,1-1S16.553,22,16,22z"/>
	<path fill="#DDDDDD" d="M27,5c-0.553,0-1,0.448-1,1s0.447,1,1,1c1.654,0,3,1.346,3,3v17c0,1.654-1.346,3-3,3H5
		c-1.654,0-3-1.346-3-3V10c0-1.654,1.346-3,3-3h12c0.553,0,1-0.448,1-1s-0.447-1-1-1H5c-2.757,0-5,2.243-5,5v17c0,2.757,2.243,5,5,5
		h22c2.757,0,5-2.243,5-5V10C32,7.243,29.757,5,27,5z"/>
	<path fill="#DDDDDD" d="M19.889,19.447l0.445,1.085v0.136c0,0.537,0.324,0.996,0.783,1.206V23c0,0.553,0.447,1,1,1s1-0.447,1-1
		v-1.092C23.629,21.723,24,21.242,24,20.668v-0.17l0.376-1.117l0.549-1.332c0.05-0.121,0.075-0.25,0.075-0.381V3
		c0-1.654-1.346-3-3-3s-3,1.346-3,3v14.668c0,0.18,0.048,0.354,0.139,0.508L19.889,19.447z M21,3c0-0.551,0.447-1,1-1s1,0.449,1,1
		v14.471l-0.497,1.209l-0.347,1.025l-0.447-1.086c-0.018-0.044-0.039-0.086-0.063-0.127L21,17.395V3z"/>
</g>
</svg>
