<?xml version="1.0" encoding="utf-8"?>
<!-- Generator: Adobe Illustrator 16.0.0, SVG Export Plug-In . SVG Version: 6.00 Build 0)  -->
<!DOCTYPE svg PUBLIC "-//W3C//DTD SVG 1.1//EN" "http://www.w3.org/Graphics/SVG/1.1/DTD/svg11.dtd">
<svg version="1.1" id="Layer_1" xmlns="http://www.w3.org/2000/svg" xmlns:xlink="http://www.w3.org/1999/xlink" x="0px" y="0px"
	 width="32px" height="28px" viewBox="0 0 32 28" enable-background="new 0 0 32 28" xml:space="preserve">
<g>
	<circle fill="#DDDDDD" cx="5" cy="4" r="1"/>
	<circle fill="#DDDDDD" cx="7.986" cy="4" r="1"/>
	<circle fill="#DDDDDD" cx="11" cy="4" r="1"/>
	<path fill="#DDDDDD" d="M27,0H5C2.243,0,0,2.243,0,5v18c0,2.757,2.243,5,5,5h22c2.757,0,5-2.243,5-5V5C32,2.243,29.757,0,27,0z
		 M5,2h22c1.654,0,3,1.346,3,3v1H2V5C2,3.346,3.346,2,5,2z M2,23V8h12v18H5C3.346,26,2,24.654,2,23z M27,26H16V8h14v15
		C30,24.654,28.654,26,27,26z"/>
	<path fill="#DDDDDD" d="M27,10h-8.047c-0.553,0-1,0.448-1,1v12c0,0.553,0.447,1,1,1H27c0.553,0,1-0.447,1-1V11
		C28,10.448,27.553,10,27,10z M26,22h-6.047V12H26V22z"/>
	<path fill="#DDDDDD" d="M5,12h6c0.552,0,1-0.448,1-1s-0.448-1-1-1H5c-0.552,0-1,0.448-1,1S4.448,12,5,12z"/>
	<path fill="#DDDDDD" d="M11,14H5c-0.552,0-1,0.448-1,1c0,0.553,0.448,1,1,1h6c0.552,0,1-0.447,1-1C12,14.448,11.552,14,11,14z"/>
	<path fill="#DDDDDD" d="M11,22H5c-0.552,0-1,0.447-1,1s0.448,1,1,1h6c0.552,0,1-0.447,1-1S11.552,22,11,22z"/>
	<path fill="#DDDDDD" d="M11,18H5c-0.552,0-1,0.447-1,1s0.448,1,1,1h6c0.552,0,1-0.447,1-1S11.552,18,11,18z"/>
</g>
</svg>
