<?xml version="1.0" encoding="utf-8"?>
<!-- Generator: Adobe Illustrator 16.0.0, SVG Export Plug-In . SVG Version: 6.00 Build 0)  -->
<!DOCTYPE svg PUBLIC "-//W3C//DTD SVG 1.1//EN" "http://www.w3.org/Graphics/SVG/1.1/DTD/svg11.dtd">
<svg version="1.1" id="레이어_1" xmlns="http://www.w3.org/2000/svg" xmlns:xlink="http://www.w3.org/1999/xlink" x="0px"
	 y="0px" width="32px" height="32px" viewBox="0 0 32 32" enable-background="new 0 0 32 32" xml:space="preserve">
<g>
	<path fill="#DCDCDC" d="M27.006,1.991H17V1c0-0.552-0.447-1-1-1c-0.553,0-1,0.448-1,1v0.991H4.994C2.24,1.991,0,4.182,0,6.875
		v12.146c0,2.692,2.24,4.885,4.994,4.885h9.877v1.388l-5.043,4.995c-0.393,0.389-0.396,1.021-0.008,1.414
		C10.016,31.9,10.273,32,10.531,32c0.254,0,0.509-0.096,0.703-0.289l3.637-3.604v0.873c0,0.553,0.447,1,1,1c0.553,0,1-0.447,1-1
		v-0.815l3.579,3.546C20.646,31.904,20.9,32,21.154,32c0.258,0,0.515-0.1,0.709-0.297c0.39-0.393,0.387-1.025-0.006-1.414
		l-4.986-4.939v-1.443h10.135c2.754,0,4.994-2.19,4.994-4.885V6.875C32,4.182,29.76,1.991,27.006,1.991z M30,19.021
		c0,1.59-1.343,2.885-2.994,2.885H4.994C3.343,21.906,2,20.611,2,19.021V6.875c0-1.59,1.343-2.884,2.994-2.884h22.012
		C28.629,3.991,30,5.312,30,6.875V19.021z"/>
	<path fill="#DCDCDC" d="M24.238,8.316l-5.334,6.25l-5.096-4.369c-0.417-0.358-1.045-0.312-1.406,0.104l-6.157,7.1
		c-0.362,0.416-0.317,1.049,0.1,1.41C6.534,18.975,6.767,19.057,7,19.057c0.28,0,0.558-0.117,0.756-0.346l5.506-6.348l5.101,4.375
		c0.201,0.172,0.467,0.259,0.729,0.238c0.266-0.021,0.512-0.146,0.684-0.349l5.986-7.013c0.358-0.42,0.309-1.051-0.111-1.41
		C25.23,7.848,24.6,7.896,24.238,8.316z"/>
</g>
</svg>
