<?xml version="1.0" encoding="utf-8"?>
<!-- Generator: Adobe Illustrator 16.0.0, SVG Export Plug-In . SVG Version: 6.00 Build 0)  -->
<!DOCTYPE svg PUBLIC "-//W3C//DTD SVG 1.1//EN" "http://www.w3.org/Graphics/SVG/1.1/DTD/svg11.dtd">
<svg version="1.1" id="레이어_1" xmlns="http://www.w3.org/2000/svg" xmlns:xlink="http://www.w3.org/1999/xlink" x="0px"
	 y="0px" width="24px" height="32px" viewBox="0 0 24 32" enable-background="new 0 0 24 32" xml:space="preserve">
<path fill="#DCDCDC" d="M23.65,10.226c-0.221-0.189-0.517-0.275-0.801-0.229l-5.494,0.835V7c0-0.291-0.127-0.568-0.348-0.758
	c-0.222-0.19-0.517-0.277-0.802-0.23l-12.22,1.85v-2.01c1.17-0.407,2.016-1.512,2.016-2.823C6.002,1.359,4.662,0,3.015,0
	C1.353,0,0,1.359,0,3.029c0,1.294,0.832,2.389,1.987,2.809V31c0,0.553,0.447,1,1,1c0.553,0,1-0.447,1-1V17.583l4.756-0.726V21
	c0,0.287,0.123,0.561,0.338,0.75C9.266,21.912,9.501,22,9.743,22c0.041,0,0.083-0.003,0.124-0.008l13.257-1.658
	c0.5-0.063,0.876-0.488,0.876-0.992v-8.357C24,10.693,23.873,10.416,23.65,10.226z M3.015,2c0.544,0,0.987,0.462,0.987,1.029
	c0,0.561-0.434,1-0.987,1c-0.56,0-1.015-0.448-1.015-1C2,2.472,2.465,2,3.015,2z M22,18.459l-11.257,1.408v-4.174
	c0-0.292-0.127-0.568-0.349-0.759c-0.183-0.156-0.414-0.241-0.651-0.241c-0.05,0-0.101,0.004-0.15,0.012l-5.466,0.834V9.863
	l11.229-1.7v3.831c0,0.291,0.127,0.568,0.35,0.759c0.221,0.188,0.514,0.274,0.802,0.229L22,12.147V18.459z"/>
</svg>
