<?xml version="1.0" encoding="utf-8"?>
<!-- Generator: Adobe Illustrator 16.0.0, SVG Export Plug-In . SVG Version: 6.00 Build 0)  -->
<!DOCTYPE svg PUBLIC "-//W3C//DTD SVG 1.1//EN" "http://www.w3.org/Graphics/SVG/1.1/DTD/svg11.dtd">
<svg version="1.1" id="Layer_1" xmlns="http://www.w3.org/2000/svg" xmlns:xlink="http://www.w3.org/1999/xlink" x="0px" y="0px"
	 width="32px" height="32px" viewBox="0 0 32 32" enable-background="new 0 0 32 32" xml:space="preserve">
<g>
	<path fill="#DDDDDD" d="M23.625,17.969C28.296,17.646,32,13.752,32,9c0-0.823-0.118-1.654-0.352-2.471
		c-0.098-0.341-0.366-0.605-0.711-0.694c-0.34-0.089-0.707,0.011-0.957,0.261l-1.729,1.728c-1.088,1.09-2.984,1.091-4.074,0
		c-1.123-1.124-1.123-2.952,0-4.077l1.727-1.727c0.25-0.25,0.35-0.615,0.261-0.958s-0.353-0.614-0.692-0.711
		C24.654,0.118,23.822,0,23,0c-4.963,0-9,4.037-9,9c0,0.469,0.054,0.949,0.133,1.432l-1.195,1.094L7.217,5.803
		C7.746,4.689,7.561,3.318,6.64,2.398L4.535,0.293c-0.391-0.391-1.023-0.391-1.414,0L0.293,3.121c-0.391,0.391-0.391,1.023,0,1.414
		l2.106,2.106C2.965,7.208,3.719,7.52,4.52,7.52c0.453,0,0.887-0.11,1.285-0.301l5.657,5.657l-9.704,8.881
		C0.624,22.891,0,24.396,0,26s0.624,3.109,1.758,4.242C2.892,31.376,4.398,32,6,32c1.603,0,3.109-0.625,4.272-1.79l6.825-7.457
		l8.075,8.075C25.928,31.584,26.932,32,28,32s2.072-0.416,2.827-1.171C31.584,30.074,32,29.07,32,28.001s-0.416-2.073-1.172-2.829
		L23.625,17.969z M3.812,5.226L2.414,3.828l1.414-1.414l1.398,1.398c0.39,0.39,0.39,1.024,0,1.414
		C4.847,5.604,4.191,5.604,3.812,5.226z M8.828,28.827c-1.51,1.511-4.143,1.513-5.656,0C2.416,28.072,2,27.068,2,26
		s0.416-2.072,1.14-2.798l12.745-11.663c0.031-0.028,0.045-0.067,0.072-0.098c0.047-0.055,0.092-0.109,0.126-0.173
		c0.029-0.054,0.046-0.11,0.065-0.168c0.021-0.063,0.039-0.125,0.046-0.193c0.007-0.065,0.001-0.128-0.005-0.194
		c-0.004-0.045,0.007-0.089-0.003-0.135C16.063,10.041,16,9.51,16,9c0-3.89,3.212-7.018,7.096-7l-0.332,0.331
		c-1.902,1.904-1.902,5.002,0,6.904c0.922,0.924,2.147,1.432,3.452,1.432c1.306,0,2.53-0.508,3.452-1.431l0.331-0.331
		C30,8.937,30,8.968,30,9c0,3.86-3.141,7-7,7c-0.518,0-1.046-0.062-1.574-0.185c-0.041-0.009-0.079,0.001-0.12-0.003
		c-0.073-0.008-0.145-0.014-0.218-0.006c-0.059,0.007-0.111,0.024-0.168,0.041c-0.066,0.02-0.13,0.04-0.192,0.074
		c-0.057,0.03-0.103,0.07-0.152,0.11c-0.036,0.03-0.08,0.047-0.113,0.083L8.828,28.827z M29.414,29.414
		c-0.756,0.756-2.072,0.756-2.828,0l-7.768-7.768l2.828-2.828l7.768,7.768C29.792,26.964,30,27.466,30,28.001
		C30,28.535,29.792,29.037,29.414,29.414z"/>
	<circle fill="#DDDDDD" cx="6" cy="26" r="2"/>
</g>
</svg>
