<?xml version="1.0" encoding="utf-8"?>
<!-- Generator: Adobe Illustrator 16.0.0, SVG Export Plug-In . SVG Version: 6.00 Build 0)  -->
<!DOCTYPE svg PUBLIC "-//W3C//DTD SVG 1.1//EN" "http://www.w3.org/Graphics/SVG/1.1/DTD/svg11.dtd">
<svg version="1.1" id="레이어_1" xmlns="http://www.w3.org/2000/svg" xmlns:xlink="http://www.w3.org/1999/xlink" x="0px"
	 y="0px" width="30.813px" height="32px" viewBox="0 0 30.813 32" enable-background="new 0 0 30.813 32" xml:space="preserve">
<path fill="#DCDCDC" d="M24.337,12.305c-1.512,0-2.971,0.534-4.131,1.507l-4.953-4.374c0.461-0.899,0.705-1.908,0.707-2.931
	c-0.003-3.551-2.893-6.441-6.443-6.442C5.966,0.066,3.078,2.957,3.078,6.507c0,2.779,1.813,5.26,4.439,6.118l-1.779,6.473
	c-3.264,0.367-5.704,3.088-5.704,6.396c0,3.551,2.889,6.439,6.44,6.439c3.552,0,6.441-2.889,6.441-6.439
	c0-0.409-0.043-0.831-0.128-1.258l5.903-2.401c1.132,2.071,3.275,3.351,5.646,3.353c3.551-0.002,6.44-2.892,6.441-6.441
	C30.777,15.194,27.888,12.305,24.337,12.305z M24.337,23.285c-2.5-0.004-4.536-2.04-4.54-4.539c0.004-2.5,2.04-4.537,4.54-4.541
	c2.501,0.003,4.537,2.041,4.54,4.541C28.874,21.245,26.838,23.281,24.337,23.285z M18.034,20.049l-5.891,2.397
	c-0.919-1.709-2.557-2.91-4.455-3.271l1.712-6.23c0.039,0.002,0.078,0.004,0.117,0.004c1.737,0,3.406-0.712,4.617-1.96l4.808,4.245
	c-0.686,1.049-1.047,2.26-1.047,3.513C17.895,19.17,17.941,19.607,18.034,20.049z M4.979,6.508c0.004-2.5,2.04-4.537,4.538-4.542
	c2.499,0.004,4.536,2.042,4.542,4.541c-0.006,2.498-2.044,4.535-4.542,4.541C7.019,11.042,4.983,9.005,4.979,6.508z M11.015,25.494
	c-0.004,2.499-2.041,4.535-4.54,4.539c-2.499-0.004-4.536-2.04-4.541-4.539c0.004-2.499,2.042-4.537,4.54-4.541
	C8.975,20.957,11.011,22.995,11.015,25.494z"/>
</svg>
